<?xml version="1.0" encoding="utf-8" ?>
<svg xmlns="http://www.w3.org/2000/svg" xmlns:xlink="http://www.w3.org/1999/xlink" width="1024" height="1024">
	<path fill="#0F45CE" d="M165.466 284.394L165.429 232.063C165.409 220.788 164.265 208.336 166.73 197.301C168.775 188.147 173.05 179.24 179.541 172.403C188.513 162.952 201.297 157.776 214.223 157.486C228.822 157.16 243.503 157.51 258.109 157.518L346.117 157.524L614.204 157.52L745.902 157.521L784.154 157.516C791.462 157.516 799.407 156.982 806.624 158.038C816.476 159.48 826.394 164.467 833.514 171.365C854.352 191.554 849.026 220.822 849.559 247.005L849.832 634.026L849.515 750.432C849.463 767.578 851.276 785.912 849.237 802.864C847.978 813.33 841.871 827.651 834.396 835.149C824.52 845.056 810.325 851.686 796.507 853.582C788.863 854.631 780.909 854.243 773.208 854.24L738.451 854.214L619.628 854.212L231.164 854.186C225.498 854.147 219.269 854.392 213.697 853.386C203.85 851.61 187.998 843.025 180.969 835.901C172.275 827.091 167.609 814.596 166.102 802.482C165.086 794.311 165.412 786.014 165.43 777.793L165.421 745.665L165.321 631.507L165.399 408.348C165.397 367.048 164.941 325.688 165.466 284.394Z"/>
	<path fill="#6B7B90" d="M165.466 284.394L165.429 232.063C165.409 220.788 164.265 208.336 166.73 197.301C168.775 188.147 173.05 179.24 179.541 172.403C188.513 162.952 201.297 157.776 214.223 157.486C228.822 157.16 243.503 157.51 258.109 157.518L346.117 157.524L614.204 157.52L745.902 157.521L784.154 157.516C791.462 157.516 799.407 156.982 806.624 158.038C816.476 159.48 826.394 164.467 833.514 171.365C854.352 191.554 849.026 220.822 849.559 247.005L394.049 247.053C394.13 256.087 396.362 273.003 389.629 279.826C387.132 282.308 383.865 283.866 380.364 284.244C372.441 285.118 363.879 284.495 355.884 284.492L308.619 284.47L165.466 284.394Z"/>
	<path fill="#FBFBFA" d="M307.071 203.251C312.656 203.256 331.486 201.904 335.315 204.447C337.064 205.609 337.923 208.955 338.299 210.849C339.361 216.201 340.131 238.164 336.961 242.26C335.121 244.638 332.035 244.614 329.315 244.795C324.149 244.758 302.175 245.989 299.346 243.322C297.021 241.13 296.584 236.299 296.476 233.288C296.289 228.034 295.282 208.905 298.621 205.599C300.969 203.274 304.004 203.333 307.071 203.251Z"/>
	<path fill="#FBFBFA" d="M235.577 203.253C240.826 203.232 261.675 201.925 264.886 204.704C267.241 206.741 267.842 210.868 268.044 213.789C268.419 219.207 269.114 239.018 265.897 242.404C263.942 244.461 261.658 244.619 258.967 244.771C251.422 244.766 236.726 246.105 230.205 243.803C227.903 241.655 227.055 238.715 226.654 235.654C225.804 229.146 225.224 210.3 229.271 205.602C231.009 203.584 233.059 203.414 235.577 203.253Z"/>
	<path fill="#FBFBFA" d="M500.43 354.218C544.675 352.653 590.133 368.257 622.82 398.279C658.24 430.811 676.364 476.875 678.321 524.353C680.365 573.959 664.715 620.792 630.944 657.495C637.68 664.636 673.207 699.476 675.419 704.893C675.843 705.931 675.889 705.983 675.455 707.056C671.529 708.815 632.039 708.355 625.504 708.146C610.904 707.679 602.807 696.523 593.596 686.812C584.36 691.462 575.382 695.814 565.735 699.577C548.422 705.268 531.274 708.661 513.064 709.581C467.892 711.861 420.842 696.948 387.16 666.332C352.025 634.395 333.239 588.23 331.186 541.288C329.065 492.782 343.856 442.933 377.058 406.761C409.162 371.785 453.97 356.098 500.43 354.218Z"/>
	<path fill="#0F45CE" d="M497.176 399.706C520.624 397.433 545.791 404.263 565.394 417.057C592.354 434.654 610.251 464.641 616.716 495.825C623.063 526.439 621.666 561.43 610.123 590.617C606.214 600.5 601.108 609.376 595.306 618.228L569.639 586.407C564.628 580.164 559.743 573.125 554.031 567.538C551.395 564.959 548.191 562.625 544.713 561.348C542.12 560.396 539.149 560.195 536.406 560.05C526.486 559.524 516.307 560.055 506.353 560.098C500.941 560.122 495.316 559.575 489.94 559.876C488.428 559.961 486.458 560.09 485.12 560.886C483.942 561.587 483.769 562.143 483.492 563.423C484.24 565.711 517.938 603.132 522.876 608.952C534.9 622.548 546.384 636.722 558.127 650.568C545.027 657.855 530.795 661.855 515.899 663.129C485.808 665.703 457.025 657.968 433.832 638.179C407.047 615.326 393.338 581.707 390.71 547.094C387.641 506.661 396.063 466.85 423.197 435.507C442.334 413.401 468.25 401.769 497.176 399.706Z"/>
</svg>
